<?xml version="1.0" encoding="UTF-8"?>
<svg xmlns="http://www.w3.org/2000/svg" xmlns:xlink="http://www.w3.org/1999/xlink" viewBox="0 0 30 30" width="30px" height="30px">
<g id="surface250848">
<path style=" stroke:none;fill-rule:nonzero;fill:rgb(100%,100%,100%);fill-opacity:1;" d="M 15 1.199219 C 7.386719 1.199219 1.199219 7.386719 1.199219 15 C 1.199219 22.613281 7.386719 28.800781 15 28.800781 C 22.613281 28.800781 28.800781 22.613281 28.800781 15 C 28.800781 7.386719 22.613281 1.199219 15 1.199219 Z M 15 2.398438 C 21.964844 2.398438 27.601562 8.035156 27.601562 15 C 27.601562 21.964844 21.964844 27.601562 15 27.601562 C 8.035156 27.601562 2.398438 21.964844 2.398438 15 C 2.398438 8.035156 8.035156 2.398438 15 2.398438 Z M 19.792969 9.59375 C 19.636719 9.59375 19.484375 9.660156 19.375 9.777344 L 15 14.152344 L 10.625 9.777344 C 10.511719 9.660156 10.355469 9.59375 10.195312 9.59375 C 9.949219 9.59375 9.730469 9.742188 9.636719 9.96875 C 9.546875 10.195312 9.601562 10.453125 9.777344 10.625 L 14.152344 15 L 9.777344 19.375 C 9.617188 19.527344 9.554688 19.75 9.609375 19.960938 C 9.664062 20.171875 9.828125 20.335938 10.039062 20.390625 C 10.25 20.445312 10.472656 20.382812 10.625 20.222656 L 15 15.847656 L 19.375 20.222656 C 19.527344 20.382812 19.75 20.445312 19.960938 20.390625 C 20.171875 20.335938 20.335938 20.171875 20.390625 19.960938 C 20.445312 19.75 20.382812 19.527344 20.222656 19.375 L 15.847656 15 L 20.222656 10.625 C 20.402344 10.453125 20.457031 10.1875 20.363281 9.960938 C 20.265625 9.734375 20.042969 9.585938 19.792969 9.59375 Z M 19.792969 9.59375 "/>
</g>
</svg>
