<?xml version="1.0" encoding="UTF-8"?>
<svg xmlns="http://www.w3.org/2000/svg" xmlns:xlink="http://www.w3.org/1999/xlink" viewBox="0 0 80 80" width="80px" height="80px">
<g id="surface250853">
<path style=" stroke:none;fill-rule:nonzero;fill:rgb(100%,100%,100%);fill-opacity:1;" d="M 40 3.199219 C 19.695312 3.199219 3.199219 19.695312 3.199219 40 C 3.199219 60.304688 19.695312 76.800781 40 76.800781 C 60.304688 76.800781 76.800781 60.304688 76.800781 40 C 76.800781 19.695312 60.304688 3.199219 40 3.199219 Z M 40 6.398438 C 58.574219 6.398438 73.601562 21.425781 73.601562 40 C 73.601562 58.574219 58.574219 73.601562 40 73.601562 C 21.425781 73.601562 6.398438 58.574219 6.398438 40 C 6.398438 21.425781 21.425781 6.398438 40 6.398438 Z M 52.785156 25.578125 C 52.363281 25.589844 51.960938 25.765625 51.667969 26.070312 L 40 37.738281 L 28.332031 26.070312 C 28.03125 25.757812 27.617188 25.585938 27.183594 25.585938 C 26.535156 25.585938 25.945312 25.980469 25.703125 26.582031 C 25.457031 27.1875 25.601562 27.878906 26.070312 28.332031 L 37.738281 40 L 26.070312 51.667969 C 25.652344 52.070312 25.480469 52.664062 25.628906 53.226562 C 25.773438 53.789062 26.210938 54.226562 26.773438 54.371094 C 27.335938 54.519531 27.929688 54.347656 28.332031 53.929688 L 40 42.261719 L 51.667969 53.929688 C 52.070312 54.347656 52.664062 54.519531 53.226562 54.371094 C 53.789062 54.226562 54.226562 53.789062 54.371094 53.226562 C 54.519531 52.664062 54.347656 52.070312 53.929688 51.667969 L 42.261719 40 L 53.929688 28.332031 C 54.40625 27.875 54.554688 27.171875 54.300781 26.5625 C 54.046875 25.953125 53.445312 25.5625 52.785156 25.578125 Z M 52.785156 25.578125 "/>
</g>
</svg>
