<?xml version="1.0" encoding="UTF-8"?>
<svg xmlns="http://www.w3.org/2000/svg" xmlns:xlink="http://www.w3.org/1999/xlink" viewBox="0 0 40 40" width="40px" height="40px">
<g id="surface253706">
<path style=" stroke:none;fill-rule:nonzero;fill:rgb(100%,100%,100%);fill-opacity:1;" d="M 20 1.601562 C 9.847656 1.601562 1.601562 9.847656 1.601562 20 C 1.601562 30.152344 9.847656 38.398438 20 38.398438 C 30.152344 38.398438 38.398438 30.152344 38.398438 20 C 38.398438 9.847656 30.152344 1.601562 20 1.601562 Z M 20 3.199219 C 29.289062 3.199219 36.800781 10.710938 36.800781 20 C 36.800781 29.289062 29.289062 36.800781 20 36.800781 C 10.710938 36.800781 3.199219 29.289062 3.199219 20 C 3.199219 10.710938 10.710938 3.199219 20 3.199219 Z M 26.390625 12.789062 C 26.179688 12.792969 25.980469 12.882812 25.835938 13.035156 L 20 18.867188 L 14.164062 13.035156 C 14.015625 12.878906 13.808594 12.792969 13.59375 12.792969 C 13.265625 12.792969 12.972656 12.988281 12.851562 13.292969 C 12.730469 13.59375 12.800781 13.9375 13.035156 14.164062 L 18.867188 20 L 13.035156 25.835938 C 12.824219 26.035156 12.742188 26.332031 12.8125 26.613281 C 12.886719 26.894531 13.105469 27.113281 13.386719 27.1875 C 13.667969 27.257812 13.964844 27.175781 14.164062 26.964844 L 20 21.132812 L 25.835938 26.964844 C 26.035156 27.175781 26.332031 27.257812 26.613281 27.1875 C 26.894531 27.113281 27.113281 26.894531 27.1875 26.613281 C 27.257812 26.332031 27.175781 26.035156 26.964844 25.835938 L 21.132812 20 L 26.964844 14.164062 C 27.203125 13.9375 27.277344 13.585938 27.148438 13.28125 C 27.023438 12.976562 26.722656 12.78125 26.390625 12.789062 Z M 26.390625 12.789062 "/>
</g>
</svg>
