<svg version="1.1" xmlns="http://www.w3.org/2000/svg" viewBox="0 0 250 250"><desc>Created with Snap</desc><defs></defs><g transform="matrix(0.076,0,0,0.076,88.6746,77.7847)"><rect x="-649.2160751342774" y="-1024.000048828125" width="2254.848165893555" height="3291.1362396240233" fill="#91c77b" style=""></rect><g transform="matrix(51.264,0,0,51.264,-342.0161,319.488)"><g display="none"><rect x="-69.333" y="-18.667" display="inline" fill="#292929" width="473.333" height="236" style=""></rect></g><g display="none"><g display="inline"><g><polygon fill="#292929" points="32,31.952 0,31.952 0,0.048    " style=""></polygon></g><g><polygon fill="#292929" points="23.347,23.325 8.653,23.325 8.653,8.675    " style=""></polygon></g></g><g display="inline"><g><polygon fill="#292929" points="0,0.048 32,0.048 32,31.952    " style=""></polygon></g><g><polygon fill="#292929" points="8.653,8.675 23.347,8.675 23.347,23.325    " style=""></polygon></g></g></g><g display="none"><g display="inline"><rect x="8.675" y="8.675" fill="#292929" stroke="#292929" stroke-miterlimit="10" width="14.65" height="14.65" style=""></rect><rect x="0.5" y="0.326" fill="#292929" stroke="#292929" stroke-miterlimit="10" width="31" height="31.348" style=""></rect><line fill="#292929" stroke="#292929" stroke-miterlimit="10" x1="0.413" y1="0.413" x2="31.587" y2="31.587" style=""></line></g></g><g display="none"><rect x="0.5" y="0.326" display="inline" fill="#292929" stroke="#292929" stroke-miterlimit="10" width="31" height="31.348" style=""></rect><rect x="8.675" y="8.675" display="inline" fill="#292929" stroke="#292929" stroke-miterlimit="10" width="14.65" height="14.65" style=""></rect><line display="inline" fill="#292929" stroke="#292929" stroke-miterlimit="10" x1="0.413" y1="0.413" x2="31.587" y2="31.587" style=""></line></g><g><g><polygon points="9.382,8.675 23.325,8.675 23.325,22.618 32,31.293 32,0 0.707,0   " fill="#292929" style=""></polygon><polygon points="22.618,23.325 8.675,23.325 8.675,9.382 0,0.707 0,32 31.293,32   " fill="#292929" style=""></polygon></g></g><desc>Created with Snap</desc><defs></defs></g><g><g transform="matrix(1.024,0,0,-1.024,0,0)"><path d="M704 247L796 646Q775 649 754 655Q733 662 710 671L710 700L934 700L934 671Q900 656 862 646L695 0L633 -12L472 532L314 0L253 -12L76 646Q56 651 37 657Q18 663 0 671L0 700L260 700L260 671Q241 664 221 657Q201 651 178 646L277 243L299 113L301 113L336 245L471 700L505 700L650 245L679 115L681 115L704 247Z" fill="#292929" style=""></path></g></g></g></svg>